<svg xmlns="http://www.w3.org/2000/svg" viewBox="0 0 256 256">
<defs><linearGradient id="g" x1="0" y1="0" x2="1" y2="1"><stop offset="0" stop-color="#10b981"/><stop offset="1" stop-color="#22d3ee"/></linearGradient></defs>
<circle cx="128" cy="128" r="120" fill="url(#g)"/><path fill="#0b1220" d="M83 195l9-33a65 65 0 1165 26l-74 7z"/>
<path fill="#fff" d="M102 108c-3 12 19 41 32 45 9 3 15-6 17-8 2-1 7 1 13 3 4 2 7 3 7 5 0 7-16 23-29 23-14 0-31-8-45-23-14-15-21-31-21-43 0-9 16-28 24-28 1 0 4 3 6 6 2 3 2 7 1 8-1 2-6 4-5 12z"/>
</svg>